<?xml version="1.0" encoding="utf-8"?>
<!-- Generator: Adobe Illustrator 22.1.0, SVG Export Plug-In . SVG Version: 6.00 Build 0)  -->
<svg version="1.1" id="contents" xmlns="http://www.w3.org/2000/svg" xmlns:xlink="http://www.w3.org/1999/xlink" x="0px" y="0px"
	 viewBox="0 0 800 800" style="enable-background:new 0 0 800 800;" xml:space="preserve">
<style type="text/css">
	.st0{fill:#E4007F;}
</style>
<g>
	<g>
		<g>
			<path class="st0" d="M204.1,348.3c-8.8,0-15.9-7.1-15.9-15.9c0-8.8,7.1-15.9,15.9-15.9h171.5c8.8,0,15.9,7.1,15.9,15.9
				c0,8.8-7.1,15.9-15.9,15.9H204.1z"/>
		</g>
		<g>
			<path class="st0" d="M204.1,412.6c-8.8,0-15.9-7.1-15.9-15.9c0-8.8,7.1-15.9,15.9-15.9h192.3c8.8,0,15.9,7.1,15.9,15.9
				c0,8.8-7.1,15.9-15.9,15.9H204.1z"/>
		</g>
		<g>
			<path class="st0" d="M204.1,476.7c-8.8,0-15.9-7.1-15.9-15.9c0-8.8,7.1-15.9,15.9-15.9h132.2c8.8,0,15.9,7.1,15.9,15.9
				c0,8.8-7.1,15.9-15.9,15.9H204.1z"/>
		</g>
	</g>
	<path class="st0" d="M650.7,185.4H348.8c-18.7,0-33.9,15.2-33.9,33.9v13.2h136.3c31.8,0,57.7,25.9,57.7,57.7V466h27.8l126.4,76.9
		c0.8,0.5,1.8,0.8,2.7,0.8c1.3,0,2.6-0.5,3.5-1.4c1.7-1.6,2.1-4.1,1.1-6.2L634.1,466h16.7c18.7,0,33.9-15.2,33.9-33.9V219.3
		C684.6,200.6,669.4,185.4,650.7,185.4z"/>
	<path class="st0" d="M451.2,256.3H149.3c-18.7,0-33.9,15.2-33.9,33.9V503c0,18.7,15.2,33.9,33.9,33.9h93.3L206.3,607
		c-1.1,2.1-0.6,4.6,1.1,6.2c1,0.9,2.3,1.4,3.5,1.4c0.9,0,1.9-0.2,2.7-0.8L340,536.9h111.3c18.7,0,33.9-15.2,33.9-33.9V290.2
		C485.1,271.5,469.9,256.3,451.2,256.3z M459.2,503c0,4.3-3.7,8-8,8H332.7l-69.3,42.2l21.8-42.2h-136c-4.3,0-8-3.7-8-8V290.2
		c0-4.3,3.7-8,8-8h301.9c4.3,0,8,3.7,8,8V503z"/>
</g>
</svg>
