<?xml version="1.0" encoding="utf-8"?>
<!-- Generator: Adobe Illustrator 22.1.0, SVG Export Plug-In . SVG Version: 6.00 Build 0)  -->
<svg version="1.1" id="レイヤー_1" xmlns="http://www.w3.org/2000/svg" xmlns:xlink="http://www.w3.org/1999/xlink" x="0px"
	 y="0px" viewBox="0 0 342.5 322.2" style="enable-background:new 0 0 342.5 322.2;" xml:space="preserve">
<style type="text/css">
	.st0{fill:none;stroke:#ED1E79;stroke-width:10;stroke-miterlimit:10;}
	.st1{fill:none;stroke:#ED1E79;stroke-width:14;stroke-miterlimit:10;}
	.st2{fill:none;stroke:#ED1E79;stroke-width:15;stroke-miterlimit:10;}
	.st3{fill:none;}
	.st4{fill:#ED1F79;}
	.st5{font-family:'SFProDisplay-Bold';}
	.st6{font-size:36px;}
</style>
<title>match</title>
<path class="st0" d="M145.8,36.6"/>
<path class="st0" d="M106.9,122.8"/>
<path class="st1" d="M227.8,139.8c2.9,7.8,6.6,19.5,6.6,28.3c0.5,39.6-31.3,72.1-70.9,72.6c-39.6,0.5-72.1-31.3-72.6-70.9
	c0-0.6,0-1.1,0-1.7c0-16.8,7.3-34.6,17.1-46.9"/>
<path id="_パス_" class="st0" d="M107.9,121.2"/>
<path id="_パス_2" class="st1" d="M145.5,37v1c-0.1,34.4-16.4,56.6-37.6,83.2"/>
<line class="st2" x1="146.6" y1="41.8" x2="169.1" y2="69.7"/>
<line class="st1" x1="162.6" y1="239.9" x2="257.9" y2="239.9"/>
<circle class="st1" cx="162.6" cy="193.8" r="40.2"/>
<rect x="62.6" y="258.2" class="st3" width="222.7" height="32.3"/>
<text transform="matrix(1 0 0 1 121.7937 288.9013)" class="st4 st5 st6">match</text>
</svg>
